# xmcd
#
# Track frame offsets: 
#        150
#        17826
#        31383
#        50991
#        66162
#        82682
#        94207
#        110036
#        121450
#        139345
#        155165
#        172335
#
# Disc length: 2575 seconds
#
# Revision: 5
# Processed by: cddbd v1.5.2PL0 Copyright (c) Steve Scherf et al.
# Submitted via: ExactAudioCopy v1.3
#
DISCID=b10a0d0c
DTITLE=Corb Lund - Losin' Lately Gambler
DYEAR=2009
DGENRE=Country
TTITLE0=Horse Doctor, Come Quick
TTITLE1=Steer Rider's Blues
TTITLE2=A Game In Town Like This
TTITLE3=Alberta Says Hello
TTITLE4=Talkin' Veterinarian Blues
TTITLE5=It's Hard To Keep A White Shirt Clean (for Willie P. Bennett)
TTITLE6=Long Gone To Saskatchewan
TTITLE7=Devil's Best Dress
TTITLE8=The Only Long Rider I Know
TTITLE9=Chinook Wind
TTITLE10=This Is My Prairie
TTITLE11=Rye Whiskey, Time To Switch To Whiskey (Live in Australia)
EXTD=YEAR: 2009
EXTT0=
EXTT1=
EXTT2=
EXTT3=
EXTT4=
EXTT5=
EXTT6=
EXTT7=
EXTT8=
EXTT9=
EXTT10=
EXTT11=
PLAYORDER=
